<svg width="557" height="276" viewBox="0 0 557 276" fill="none" xmlns="http://www.w3.org/2000/svg">
<g clip-path="url(#clip0_32_72)">
<path d="M549.424 2.28875C540.05 4.8057e-05 533.681 3.13641 532.749 8.54028L526.063 47.2362L520.391 11.1892C520.032 8.87935 515.27 2.20398 507.716 2.20398C500.162 2.20398 494.194 6.63303 495.146 13.3508L513.451 142.45C517.281 169.512 513.768 196.108 513.853 222.957L499.844 191.933C496.501 182.926 482.746 183.838 480.143 191.933C477.456 200.282 475.043 206.428 472.102 215.286L451.153 143.701C473.816 117.126 478.091 31.0034 450.243 8.01049C437.99 -2.09793 417.083 -2.75487 405.614 6.7178L408.132 269.706C409.635 274.856 419.475 276.276 424.363 275.597C428.553 275.025 433.652 268.307 433.695 262.374L434.393 179.726L460.633 270.363C462.537 276.975 480.503 278.14 482.852 271.995C486.724 261.78 489.285 252.181 492.226 241.627C496.204 251.312 500.5 262.946 506.383 273.012C508.711 276.996 521.852 276.509 525.555 273.733C536.453 265.531 538.78 250.973 539.034 236.626L540.769 134.016L556.831 17.4196C557.741 10.8078 554.27 3.49667 549.403 2.30994L549.424 2.28875ZM450.581 31.2153C452.338 31.2153 453.777 32.6564 453.777 34.4153C453.777 36.1742 452.338 37.6152 450.581 37.6152C448.825 37.6152 447.386 36.1742 447.386 34.4153C447.386 32.6564 448.825 31.2153 450.581 31.2153ZM437.737 36.0682C438.308 35.9199 438.879 36.259 439.027 36.8311C439.027 36.8735 439.98 40.3278 442.561 41.5781C444.339 42.4469 445.122 44.2694 444.466 46.0495C443.937 47.4693 442.434 48.6985 440.191 48.6985C439.599 48.6985 438.985 48.6137 438.287 48.423C437.715 48.2746 437.398 47.6813 437.546 47.1303C437.694 46.5581 438.287 46.219 438.837 46.3886C440.868 46.9395 442.117 46.2402 442.477 45.3078C442.688 44.7356 442.582 43.9515 441.63 43.4853C438.16 41.8112 437.017 37.5516 436.975 37.3609C436.827 36.7887 437.165 36.2166 437.737 36.0682ZM421.633 31.2153C423.389 31.2153 424.828 32.6564 424.828 34.4153C424.828 36.1742 423.389 37.6152 421.633 37.6152C419.877 37.6152 418.438 36.1742 418.438 34.4153C418.438 32.6564 419.877 31.2153 421.633 31.2153ZM434.88 62.7061C425.146 60.4598 419.432 51.7712 418.205 49.6945C417.676 49.9064 417.168 49.9911 416.703 49.9911C415.644 49.9911 414.756 49.5885 414.375 49.419C414.29 49.3766 414.375 49.419 414.459 49.419C413.93 49.3554 413.528 48.9104 413.528 48.3594C413.528 47.766 413.994 47.2998 414.586 47.2998C414.84 47.2998 415.031 47.3846 415.242 47.4905C416.025 47.8508 416.956 48.1263 417.845 47.4905C419.263 46.4945 419.559 45.329 419.559 45.2866C419.686 44.7144 420.258 44.3542 420.829 44.4813C421.4 44.6085 421.76 45.1594 421.633 45.7316C421.591 45.9012 421.273 47.215 419.94 48.4865C420.871 50.0547 426.331 58.5526 435.367 60.6294C441.292 61.9856 447.598 60.3327 454.115 55.7129C454.602 55.3738 455.258 55.4798 455.596 55.9672C455.935 56.4546 455.829 57.1115 455.342 57.4506C449.925 61.2863 444.614 63.2147 439.472 63.2147C437.927 63.2147 436.403 63.0452 434.88 62.6849V62.7061Z" fill="black"/>
<path d="M201.939 2.83972C191.063 6.4423 191.655 35.5384 188.058 43.8667L181.837 8.64623C180.588 1.58941 169.267 0.656979 163.405 3.60262C157.692 6.48468 156.845 13.4355 157.967 21.2764L174.79 138.212C176.102 147.367 177.731 236.584 173.182 250.019L152.592 249.765V12.8634C152.592 5.48867 148.36 2.1192 139.684 2.1192C134.669 2.1192 127.262 4.45028 127.262 11.168L127.199 249.595H118.734L118.756 13.2448C118.756 10.0237 116.512 2.54304 108.302 2.54304L63.3137 2.50065C57.7061 2.50065 52.5851 6.16681 51.2731 11.6131C51.125 12.2064 51.0403 12.7574 51.0403 13.2448V264.599C51.0403 270.617 55.8227 275.47 61.642 275.449L179.424 275.025C186.175 275.004 192.459 271.338 195.57 265.362C198.871 258.983 200.31 251.333 200.437 244.764L202.426 136.495L216.583 34.5212C217.874 25.3029 221.027 14.2196 217.175 6.82375C214.297 1.27154 206.553 1.31392 201.939 2.83972ZM93.3624 249.977H76.4335V150.567H93.3624V249.977ZM93.3624 125.179H76.4335V27.8882H93.3624V125.179Z" fill="black"/>
<path d="M287.176 2.83973C280.383 2.83973 275.262 7.86215 275.262 13.5839L275.368 125.073H258.439L258.334 12.5243C258.334 5.93371 253.191 1.99207 246.737 1.99207C239.543 1.99207 232.961 5.59465 232.961 13.266L233.152 267.566C233.152 272.737 239.162 275.809 246.674 275.809C252.599 275.809 258.185 272.355 258.185 268.689L258.503 150.651H275.283L275.453 267.333C275.453 273.309 282.097 275.767 289.292 275.767C295.535 275.767 300.74 273.817 300.74 266.252L300.698 13.5839C300.698 8.64624 296.106 2.83973 287.197 2.83973H287.176Z" fill="black"/>
<path d="M29.3292 2.86084C20.5897 2.86084 17.1827 11.2103 17.1616 17.3347L16.6537 217.087C16.6326 228.679 11.6597 242.708 5.94625 250.718C1.54476 256.864 -1.07921 260.509 0.486708 267.693C1.39663 271.846 6.83501 275.343 12.0406 275.83C29.7524 277.505 41.92 237.05 41.9623 221.22L42.5336 16.593C42.5336 9.72693 37.3492 2.86084 29.3503 2.86084H29.3292Z" fill="black"/>
<path d="M327.213 216.006C312.019 216.621 303.914 230.268 304.422 245.929C304.718 255.275 307.11 264.281 313.394 270.384C319.489 276.297 331.17 277.589 339.19 272.948C350.744 266.273 351.696 254.596 351.886 243.725C352.14 227.874 342.131 215.371 327.234 215.985L327.213 216.006Z" fill="black"/>
<path d="M377.999 216.006C362.805 216.621 354.701 230.268 355.209 245.929C355.505 255.275 357.896 264.281 364.181 270.384C370.275 276.297 381.956 277.589 389.976 272.948C401.53 266.273 402.482 254.596 402.673 243.725C402.927 227.874 392.918 215.371 378.02 215.985L377.999 216.006Z" fill="black"/>
</g>
<defs>
<clipPath id="clip0_32_72">
<rect width="557" height="276" fill="white"/>
</clipPath>
</defs>
</svg>
