<?xml version="1.0" encoding="UTF-8"?><svg id="Layer_1" xmlns="http://www.w3.org/2000/svg" viewBox="0 0 116.49 160.34"><path d="M59.81,61.94c.84.87,2.1,1.16,3.27,1,1.39-.19,2.71-1.02,3-2.47.6-1.12.57-2.56-.07-3.65-.35-.56-.84-1.02-1.42-1.31-.16-.17-.37-.32-.6-.36-1.26-.24-2.55-.21-3.7.41-1.12.6-1.86,1.77-1.94,3.02-.04.65.19,1.29.48,1.87.26.53.57,1.06.98,1.49ZM63.02,59.38s0,0,0,0c0,0,0,0,0,0,0,0,0,0,0,0,0,0,0,0,0,0ZM63.02,59.36c-.01-.08,0-.14,0,0h0ZM63.02,59.38s.05,0,.06,0c-.02,0-.04,0-.06,0,0,0,0,0,0,0ZM63.02,58.91s0,.04-.02.07c0-.03,0-.06.01-.08,0,0,0,0,0,0Z" style="fill:#e5e5e5;"/><path d="M71.71,74.44c1.28-2.45-2.43-4.63-3.72-2.17-3.32,6.35-10.92,6.99-17.18,5.27-6.08-1.67-12.73-5.56-13.45-12.47-.28-2.73-4.59-2.76-4.31,0,1.71,16.5,30.27,25.39,38.65,9.37Z" style="fill:#e5e5e5;"/><path d="M40.8,57.72c.58.47,1.2.73,1.94.81.59.06,1.23-.1,1.74-.4.5-.29.88-.72,1.12-1.23.28-.32.49-.71.58-1.12.18-.86-.03-1.75-.58-2.43-.11-.46-.44-.83-.93-.99-.6-.19-1.26-.29-1.89-.29-.62,0-1.28.13-1.79.48-1.13.79-1.6,2.37-1.17,3.67.19.57.51,1.11.98,1.5Z" style="fill:#e5e5e5;"/><path d="M112.69,119.39c-1.3-2.35-3.47-5.21-6.33-5.44,1.27-1.87,2.24-3.9,2.76-6.1.94-4,.35-8.2-2.14-11.52-2.72-3.64-6.35-6.62-9.3-10.08-6.47-7.59-11.87-15.99-17.48-24.22-4.05-5.93-8.6-12.1-15.21-15.25-.01-.04-.02-.08-.03-.13C58.68,30.23,49.52,8.32,30.41,4.37,29.66,2.02,27.47,0,24.45,0c-3.61,0-7.63,1.31-11.11,2.19-3.11.79-7.49,1.35-8.45,4.93-.13.5-.12.95,0,1.34-.03.01-.05.01-.08.02C-2.68,11.7.02,20.85,3.24,26.13c4.3,7.06,10.26,12.89,16.16,18.59-.14,1.23.12,2.48.51,3.78.82,2.72,1.13,5.55,1.99,8.26,2.9,10.68,5.8,21.37,8.7,32.05,2.49,9.15,5.19,17.86,9.44,26.29-5.85.54-11.33,3.75-14.25,9.15-3.98,7.37-4.72,19.4.28,26.43,6.43,9.03,18.21,9.45,28.06,7.06.18.03.37.05.59.03,9.1-.85,10.78-10.29,10.05-18.07,7.51-1.45,14.99-3.02,22.45-4.69,1.22,3.91,3.77,7.45,7.19,9.37,3.38,1.9,7.38,2.1,11.17,1.84,3.86-.26,7.16-1.24,9.15-4.83,3.47-6.27,1.23-16.06-2.05-22.01ZM6.78,12.31c.04.08.07.16.11.25,1.6,3.04,5.62,2.29,8.32,1.7,3.92-.86,8.11-1.89,11.87-3.29,1.41-.52,2.37-1.36,2.94-2.34,7.93,1.74,14.19,7.76,18.6,14.37,4.57,6.85,8.1,14.49,11.14,22.16-1.36-.26-2.72-.5-4.02-.96-2.67-.95-5.01-2.63-7.71-3.55-4.94-1.69-10.36-1.97-15.54-2.2-3.56-.16-8.09-.08-10.93,2.41C15.75,35.26-3.04,16.9,6.78,12.31ZM26.06,55.63c-.62-1.96-.91-3.97-1.36-5.98-.44-1.97-1.96-4.32.04-5.8,3.1-2.29,8.96-1.1,12.56-.82,4.35.34,8.6,1.05,12.53,3.02,1.73.87,3.38,1.85,5.24,2.42,2.07.64,4.26.78,6.33,1.46,6.92,2.28,11.46,8.92,15.36,14.66,4.56,6.71,9.03,13.49,14,19.9,2.52,3.25,5.16,6.4,8.01,9.37,2.72,2.84,6.16,5.36,6.47,9.59.62,8.32-8.09,14.43-14.57,17.81-7.25,3.78-16.04,6.03-24.24,5.52-2.16-.14-4.31-.55-6.42-1.13-2.88-4.37-6.96-7.88-12.06-9.61-.97-.33-1.95-.57-2.94-.74-.14-.25-.28-.51-.42-.78-4.74-8.93-7.47-18.17-10.11-27.88-2.81-10.34-5.61-20.68-8.42-31.02ZM64,134.95c-.35-1.47-.81-2.92-1.38-4.32.49.08.98.16,1.48.23,7.43.97,15.38-.42,22.52-3.11-.03.2-.06.4-.08.6-.18.57-.19,1.12-.09,1.66,0,.08,0,.16,0,.23-7.46,1.68-14.94,3.25-22.45,4.71Z" style="fill:#e5e5e5;"/></svg>